<?xml version="1.0" encoding="UTF-8"?> <svg xmlns="http://www.w3.org/2000/svg" xmlns:cc="http://creativecommons.org/ns#" xmlns:dc="http://purl.org/dc/elements/1.1/" xmlns:rdf="http://www.w3.org/1999/02/22-rdf-syntax-ns#" xmlns:xlink="http://www.w3.org/1999/xlink" width="910" height="698.66" version="1.1" viewBox="0 0 240.77 184.85"><metadata></metadata><g transform="translate(-57.884 -33.344)"><rect x="57.884" y="50.656" width="195.79" height="7.9375" fill="#ff6c00" fill-opacity=".5" fill-rule="evenodd" stroke-width="1.0787"></rect><text transform="scale(1.0279 .9729)" x="60.236435" y="49.05225" fill="#000000" font-family="sans-serif" font-size="21.167px" stroke-width=".27195" word-spacing="0px" style="line-height:3.25" xml:space="preserve"><tspan x="60.236435" y="49.05225" font-family="Arial" font-size="21.167px" stroke-width=".27195">1 1 1 0 0 1 1 1 1 0 1</tspan></text><rect x="274.6" y="61.239" width="24.053" height="142.88" fill="#00c3ff" fill-opacity=".5" fill-rule="evenodd" stroke-width="1.6041"></rect><g><text x="130.77275" y="87.882622" fill="#000000" font-family="sans-serif" font-size="10.583px" stroke-width=".26458" style="line-height:1.25" xml:space="preserve"><tspan x="130.77275" y="87.882622" stroke-width=".26458"></tspan></text><text x="155.77977" y="50.656116" fill="#000000" font-family="sans-serif" font-size="10.583px" stroke-width=".26458" style="line-height:1.25" xml:space="preserve"><tspan x="155.77977" y="50.656116" stroke-width=".26458"></tspan></text><g transform="scale(1.0279 .9729)" stroke-width=".27195" aria-label="1024 512 256 128 64 32 16 8 4 2 1"><path d="m57.663 58.824v-0.59299h1.3914v-4.2013l-1.2325 0.87979v-0.65888l1.2906-0.88754h0.64337v4.8679h1.3294v0.59299z"></path><path d="m65.577 56.092q0 1.3681-0.48447 2.089-0.48059 0.72089-1.4224 0.72089t-1.4146-0.71701q-0.47284-0.71701-0.47284-2.0929 0-1.4069 0.45734-2.1084 0.46121-0.70151 1.4534-0.70151 0.96506 0 1.4224 0.70926 0.46121 0.70926 0.46121 2.1006zm-0.70926 0q0-1.1821-0.27518-1.7131-0.2713-0.53098-0.89917-0.53098-0.64337 0-0.9263 0.52322-0.27905 0.52322-0.27905 1.7208 0 1.1627 0.28293 1.7014 0.2868 0.53873 0.90692 0.53873 0.61624 0 0.90305-0.55035t0.2868-1.6898z"></path><path d="m66.287 58.824v-0.49222q0.19766-0.45346 0.48059-0.7984 0.2868-0.34882 0.60074-0.62787 0.31393-0.28293 0.62012-0.52322 0.31006-0.2403 0.5581-0.48059 0.24805-0.2403 0.3992-0.50384 0.15503-0.26355 0.15503-0.59686 0-0.44958-0.26355-0.69763t-0.73251-0.24805q-0.44571 0-0.73639 0.24417-0.2868 0.2403-0.33719 0.67825l-0.71314-0.06589q0.07751-0.655 0.55423-1.0426 0.48059-0.38757 1.2325-0.38757 0.82553 0 1.2674 0.39145 0.44571 0.38757 0.44571 1.1046 0 0.31781-0.14728 0.63174-0.1434 0.31394-0.43021 0.62787-0.2868 0.31393-1.0968 0.97281-0.44571 0.36432-0.70926 0.65887-0.26355 0.29068-0.37982 0.56198h2.8487v0.59299z"></path><path d="m73.716 57.588v1.2364h-0.65887v-1.2364h-2.5735v-0.5426l2.4998-3.6819h0.73251v3.6742h0.7674v0.55035zm-0.65887-3.4378q-0.0078 0.02325-0.10852 0.20541-0.10077 0.18216-0.15115 0.2558l-1.3991 2.0619-0.20929 0.2868-0.06201 0.07752h1.9301z"></path><path d="m81.003 57.045q0 0.86429-0.51547 1.3604-0.5116 0.49609-1.4224 0.49609-0.76352 0-1.2325-0.33331t-0.59299-0.96506l0.70538-0.08139q0.22092 0.81003 1.1356 0.81003 0.56198 0 0.87979-0.33719 0.31781-0.34106 0.31781-0.93405 0-0.51547-0.32169-0.83328-0.31781-0.31781-0.86041-0.31781-0.28293 0-0.5271 0.08914t-0.48834 0.30231h-0.68213l0.18216-2.9378h3.1045v0.59299h-2.4688l-0.10464 1.7325q0.45346-0.34882 1.1278-0.34882 0.80615 0 1.2829 0.47284 0.48059 0.47284 0.48059 1.2325z"></path><path d="m81.941 58.824v-0.59299h1.3914v-4.2013l-1.2325 0.87979v-0.65888l1.2906-0.88754h0.64337v4.8679h1.3294v0.59299z"></path><path d="m86.15 58.824v-0.49222q0.19766-0.45346 0.48059-0.7984 0.2868-0.34882 0.60074-0.62787 0.31394-0.28293 0.62012-0.52322 0.31006-0.2403 0.55811-0.48059 0.24805-0.2403 0.3992-0.50384 0.15503-0.26355 0.15503-0.59686 0-0.44958-0.26355-0.69763t-0.73251-0.24805q-0.44571 0-0.73639 0.24417-0.2868 0.2403-0.33719 0.67825l-0.71313-0.06589q0.07751-0.655 0.55423-1.0426 0.48059-0.38757 1.2325-0.38757 0.82553 0 1.2674 0.39145 0.44571 0.38757 0.44571 1.1046 0 0.31781-0.14728 0.63174-0.1434 0.31394-0.43021 0.62787t-1.0968 0.97281q-0.44571 0.36432-0.70926 0.65887-0.26355 0.29068-0.37982 0.56198h2.8487v0.59299z"></path><path d="m94.975 58.824v-0.49222q0.19766-0.45346 0.48059-0.7984 0.2868-0.34882 0.60074-0.62787 0.31393-0.28293 0.62012-0.52322 0.31006-0.2403 0.55811-0.48059 0.24805-0.2403 0.3992-0.50384 0.15503-0.26355 0.15503-0.59686 0-0.44958-0.26355-0.69763-0.26355-0.24805-0.73251-0.24805-0.44571 0-0.73639 0.24417-0.2868 0.2403-0.33719 0.67825l-0.71314-0.06589q0.07752-0.655 0.55423-1.0426 0.48059-0.38757 1.2325-0.38757 0.82553 0 1.2674 0.39145 0.44571 0.38757 0.44571 1.1046 0 0.31781-0.14728 0.63174-0.1434 0.31394-0.43021 0.62787-0.2868 0.31393-1.0968 0.97281-0.44571 0.36432-0.70926 0.65887-0.26355 0.29068-0.37982 0.56198h2.8487v0.59299z"></path><path d="m103.07 57.045q0 0.86429-0.51547 1.3604-0.51159 0.49609-1.4224 0.49609-0.76352 0-1.2325-0.33331t-0.59299-0.96506l0.70538-0.08139q0.22092 0.81003 1.1356 0.81003 0.56198 0 0.87979-0.33719 0.31781-0.34106 0.31781-0.93405 0-0.51547-0.32168-0.83328-0.31781-0.31781-0.86042-0.31781-0.28292 0-0.5271 0.08914-0.24417 0.08914-0.48834 0.30231h-0.68213l0.18216-2.9378h3.1045v0.59299h-2.4688l-0.10464 1.7325q0.45346-0.34882 1.1278-0.34882 0.80615 0 1.2829 0.47284 0.48059 0.47284 0.48059 1.2325z"></path><path d="m107.47 57.038q0 0.86429-0.46896 1.3643-0.46897 0.49997-1.2945 0.49997-0.92242 0-1.4108-0.686-0.48835-0.686-0.48835-1.996 0-1.4185 0.50772-2.1782 0.50773-0.75964 1.4456-0.75964 1.2364 0 1.558 1.1123l-0.66663 0.12015q-0.20541-0.66663-0.89917-0.66663-0.59686 0-0.9263 0.5581-0.32556 0.55423-0.32556 1.6084 0.18991-0.35269 0.53485-0.53485 0.34494-0.18604 0.79065-0.18604 0.75577 0 1.1976 0.47284 0.44571 0.47284 0.44571 1.2712zm-0.70926 0.03101q0-0.59299-0.29068-0.91467t-0.81003-0.32169q-0.48834 0-0.79065 0.2868-0.29843 0.28293-0.29843 0.7829 0 0.63174 0.31006 1.0348 0.31394 0.40308 0.80228 0.40308 0.50384 0 0.79065-0.33719 0.2868-0.34106 0.2868-0.93405z"></path><path d="m112.83 58.824v-0.59299h1.3914v-4.2013l-1.2325 0.87979v-0.65888l1.2906-0.88754h0.64337v4.8679h1.3294v0.59299z"></path><path d="m117.04 58.824v-0.49222q0.19766-0.45346 0.48059-0.7984 0.28681-0.34882 0.60074-0.62787 0.31393-0.28293 0.62012-0.52322 0.31006-0.2403 0.5581-0.48059 0.24805-0.2403 0.3992-0.50384 0.15503-0.26355 0.15503-0.59686 0-0.44958-0.26355-0.69763t-0.73251-0.24805q-0.44571 0-0.73639 0.24417-0.2868 0.2403-0.33719 0.67825l-0.71313-0.06589q0.0775-0.655 0.55423-1.0426 0.48059-0.38757 1.2325-0.38757 0.82553 0 1.2674 0.39145 0.44571 0.38757 0.44571 1.1046 0 0.31781-0.14728 0.63174-0.1434 0.31394-0.4302 0.62787-0.28681 0.31393-1.0968 0.97281-0.44571 0.36432-0.70926 0.65887-0.26355 0.29068-0.37982 0.56198h2.8487v0.59299z"></path><path d="m125.13 57.301q0 0.75577-0.48059 1.1782t-1.3798 0.42246q-0.87592 0-1.372-0.4147-0.49222-0.4147-0.49222-1.1782 0-0.53485 0.30618-0.89917t0.7829-0.44183v-0.0155q-0.44571-0.10464-0.70538-0.45346-0.2558-0.34882-0.2558-0.81778 0-0.62399 0.46509-1.0116 0.46896-0.38757 1.2557-0.38757 0.80616 0 1.2712 0.37982 0.46897 0.37982 0.46897 1.0271 0 0.46896-0.25968 0.81778-0.25967 0.34882-0.70926 0.43796v0.0155q0.52323 0.08527 0.81391 0.44571 0.29068 0.35657 0.29068 0.8953zm-0.86041-2.5735q0-0.9263-1.0154-0.9263-0.49221 0-0.75189 0.23254-0.2558 0.23254-0.2558 0.69376 0 0.46896 0.26355 0.71701 0.26743 0.24417 0.75189 0.24417 0.49222 0 0.74802-0.22479 0.25968-0.22867 0.25968-0.73639zm0.13565 2.5076q0-0.50772-0.30231-0.76352-0.30231-0.25967-0.84879-0.25967-0.53097 0-0.8294 0.27905-0.29843 0.27518-0.29843 0.75964 0 1.1278 1.1511 1.1278 0.56973 0 0.84878-0.2713 0.27906-0.27518 0.27906-0.87204z"></path><path d="m136.15 57.038q0 0.86429-0.46897 1.3643-0.46896 0.49997-1.2945 0.49997-0.92243 0-1.4108-0.686-0.48834-0.686-0.48834-1.996 0-1.4185 0.50772-2.1782 0.50772-0.75964 1.4456-0.75964 1.2364 0 1.558 1.1123l-0.66662 0.12015q-0.20542-0.66663-0.89917-0.66663-0.59687 0-0.9263 0.5581-0.32556 0.55423-0.32556 1.6084 0.18991-0.35269 0.53485-0.53485 0.34494-0.18604 0.79065-0.18604 0.75576 0 1.1976 0.47284 0.44571 0.47284 0.44571 1.2712zm-0.70926 0.03101q0-0.59299-0.29068-0.91467t-0.81003-0.32169q-0.48834 0-0.79065 0.2868-0.29843 0.28293-0.29843 0.7829 0 0.63174 0.31006 1.0348 0.31393 0.40308 0.80227 0.40308 0.50385 0 0.79065-0.33719 0.28681-0.34106 0.28681-0.93405z"></path><path d="m139.92 57.588v1.2364h-0.65887v-1.2364h-2.5735v-0.5426l2.4998-3.6819h0.73251v3.6742h0.7674v0.55035zm-0.65887-3.4378q-8e-3 0.02325-0.10852 0.20541-0.10077 0.18216-0.15116 0.2558l-1.3991 2.0619-0.20928 0.2868-0.062 0.07752h1.9301z"></path><path d="m153.8 57.317q0 0.75577-0.48059 1.1705-0.48059 0.4147-1.372 0.4147-0.8294 0-1.3255-0.37207-0.49222-0.37595-0.58523-1.1085l0.72088-0.06589q0.13953 0.96893 1.1898 0.96893 0.5271 0 0.82553-0.25967 0.30231-0.25967 0.30231-0.77127 0-0.44571-0.34494-0.69376-0.34106-0.25192-0.98831-0.25192h-0.39533v-0.60461h0.37983q0.5736 0 0.88754-0.24805 0.31781-0.25192 0.31781-0.69376 0-0.43796-0.25968-0.68988-0.25579-0.2558-0.76352-0.2558-0.46121 0-0.74801 0.23642-0.28293 0.23642-0.32944 0.66663l-0.70151-0.05426q0.0775-0.6705 0.55423-1.0464 0.48059-0.37595 1.2325-0.37595 0.82165 0 1.2751 0.3837 0.45734 0.37982 0.45734 1.062 0 0.52322-0.29456 0.85266-0.29068 0.32556-0.84878 0.44183v0.0155q0.61236 0.06589 0.95343 0.41083 0.34106 0.34494 0.34106 0.86816z"></path><path d="m154.55 58.824v-0.49222q0.19766-0.45346 0.48059-0.7984 0.2868-0.34882 0.60074-0.62787 0.31393-0.28293 0.62011-0.52322 0.31006-0.2403 0.55811-0.48059 0.24805-0.2403 0.3992-0.50384 0.15503-0.26355 0.15503-0.59686 0-0.44958-0.26355-0.69763t-0.73251-0.24805q-0.44571 0-0.73639 0.24417-0.28681 0.2403-0.33719 0.67825l-0.71314-0.06589q0.0775-0.655 0.55423-1.0426 0.48059-0.38757 1.2325-0.38757 0.82553 0 1.2674 0.39145 0.44571 0.38757 0.44571 1.1046 0 0.31781-0.14728 0.63174-0.1434 0.31394-0.4302 0.62787-0.28681 0.31393-1.0968 0.97281-0.44571 0.36432-0.70925 0.65887-0.26355 0.29068-0.37983 0.56198h2.8487v0.59299z"></path><path d="m167.99 58.824v-0.59299h1.3914v-4.2013l-1.2325 0.87979v-0.65888l1.2906-0.88754h0.64337v4.8679h1.3294v0.59299z"></path><path d="m175.87 57.038q0 0.86429-0.46897 1.3643-0.46896 0.49997-1.2945 0.49997-0.92243 0-1.4108-0.686-0.48834-0.686-0.48834-1.996 0-1.4185 0.50772-2.1782 0.50772-0.75964 1.4456-0.75964 1.2364 0 1.558 1.1123l-0.66662 0.12015q-0.20542-0.66663-0.89917-0.66663-0.59687 0-0.9263 0.5581-0.32556 0.55423-0.32556 1.6084 0.18991-0.35269 0.53485-0.53485 0.34494-0.18604 0.79065-0.18604 0.75576 0 1.1976 0.47284 0.44571 0.47284 0.44571 1.2712zm-0.70926 0.03101q0-0.59299-0.29068-0.91467t-0.81003-0.32169q-0.48834 0-0.79065 0.2868-0.29843 0.28293-0.29843 0.7829 0 0.63174 0.31006 1.0348 0.31393 0.40308 0.80227 0.40308 0.50385 0 0.79065-0.33719 0.28681-0.34106 0.28681-0.93405z"></path><path d="m191.31 57.301q0 0.75577-0.48059 1.1782t-1.3798 0.42246q-0.87592 0-1.372-0.4147-0.49222-0.4147-0.49222-1.1782 0-0.53485 0.30618-0.89917 0.30619-0.36432 0.7829-0.44183v-0.0155q-0.44571-0.10464-0.70538-0.45346-0.2558-0.34882-0.2558-0.81778 0-0.62399 0.46509-1.0116 0.46896-0.38757 1.2557-0.38757 0.80615 0 1.2712 0.37982 0.46896 0.37982 0.46896 1.0271 0 0.46896-0.25967 0.81778-0.25968 0.34882-0.70926 0.43796v0.0155q0.52322 0.08527 0.8139 0.44571 0.29068 0.35657 0.29068 0.8953zm-0.86041-2.5735q0-0.9263-1.0154-0.9263-0.49222 0-0.7519 0.23254-0.25579 0.23254-0.25579 0.69376 0 0.46896 0.26355 0.71701 0.26742 0.24417 0.75189 0.24417 0.49222 0 0.74801-0.22479 0.25968-0.22867 0.25968-0.73639zm0.13565 2.5076q0-0.50772-0.30231-0.76352-0.30231-0.25967-0.84878-0.25967-0.53098 0-0.82941 0.27905-0.29843 0.27518-0.29843 0.75964 0 1.1278 1.1511 1.1278 0.56973 0 0.84879-0.2713 0.27905-0.27518 0.27905-0.87204z"></path><path d="m208.31 57.588v1.2364h-0.65887v-1.2364h-2.5735v-0.5426l2.4998-3.6819h0.73251v3.6742h0.7674v0.55035zm-0.65887-3.4378q-8e-3 0.02325-0.10852 0.20541-0.10077 0.18216-0.15116 0.2558l-1.3991 2.0619-0.20929 0.2868-0.062 0.07752h1.9301z"></path><path d="m222.94 58.824v-0.49222q0.19766-0.45346 0.48059-0.7984 0.28681-0.34882 0.60074-0.62787 0.31393-0.28293 0.62012-0.52322 0.31006-0.2403 0.5581-0.48059 0.24805-0.2403 0.3992-0.50384 0.15503-0.26355 0.15503-0.59686 0-0.44958-0.26355-0.69763t-0.73251-0.24805q-0.44571 0-0.73639 0.24417-0.2868 0.2403-0.33719 0.67825l-0.71313-0.06589q0.0775-0.655 0.55423-1.0426 0.48059-0.38757 1.2325-0.38757 0.82553 0 1.2674 0.39145 0.44571 0.38757 0.44571 1.1046 0 0.31781-0.14727 0.63174-0.14341 0.31394-0.43021 0.62787t-1.0968 0.97281q-0.44571 0.36432-0.70926 0.65887-0.26355 0.29068-0.37982 0.56198h2.8487v0.59299z"></path><path d="m240.79 58.824v-0.59299h1.3914v-4.2013l-1.2325 0.87979v-0.65888l1.2906-0.88754h0.64337v4.8679h1.3294v0.59299z"></path></g><text transform="scale(1.0279 .9729)" x="269.90121" y="70.516884" fill="#000000" font-family="Arial" font-size="7.9375px" stroke-width=".27195" word-spacing="0px" style="line-height:1.7" xml:space="preserve"><tspan x="269.90121" y="70.516884">1</tspan><tspan x="269.90121" y="84.137543">0</tspan><tspan x="269.90121" y="97.758209">4</tspan><tspan x="269.90121" y="111.37887">8</tspan><tspan x="269.90121" y="124.99953">16</tspan><tspan x="269.90121" y="138.62019">32</tspan><tspan x="269.90121" y="152.24086">0</tspan><tspan x="269.90121" y="165.86151">0</tspan><tspan x="269.90121" y="179.48218">256</tspan><tspan x="269.90121" y="193.10284">512</tspan><tspan x="269.90121" y="206.7235">1024</tspan></text></g><g fill="none" stroke-width=".26458px"><path d="m251.03 61.239v5.2917h21.167" stroke="#f00"></path><path d="m232.51 61.239v18.521h39.688" stroke="#808000"></path><path d="m213.99 61.239v31.75h58.208" stroke="#008000"></path><path d="m195.47 61.239 1e-5 44.979h76.729" stroke="#0f0"></path><path d="m176.95 61.239v58.208h95.25" stroke="#008080"></path><path d="m158.43 61.239v71.437h113.77" stroke="#0ff"></path><path d="m139.9 61.239v84.667h132.29" stroke="#000080"></path><path d="m124.03 61.239v97.896h148.17" stroke="#800080"></path><path d="m105.51 61.239v111.12h166.69" stroke="#f0f"></path><path d="m86.988 61.239v124.35h185.21" stroke="#2b0000"></path><path d="m68.467 61.239v137.58h203.73" stroke="#a00"></path></g><g font-family="sans-serif"><g font-size="7.9375px" stroke-width=".27195" word-spacing="0px"><text transform="scale(1.0279 .9729)" x="249.41612" y="67.482735" fill="#ff0000" style="line-height:3.25" xml:space="preserve"><tspan x="249.41612" y="67.482735" fill="#ff0000" font-family="Arial" font-size="7.9375px" stroke-width=".27195">1x1</tspan></text><text transform="scale(1.0279 .9729)" x="229.26018" y="80.955902" fill="#808000" style="line-height:3.25" xml:space="preserve"><tspan x="229.26018" y="80.955902" fill="#808000" font-family="Arial" font-size="7.9375px" stroke-width=".27195">2x0</tspan></text><text transform="scale(1.0279 .9729)" x="211.31859" y="94.425194" fill="#008000" style="line-height:3.25" xml:space="preserve"><tspan x="211.31859" y="94.425194" fill="#008000" font-family="Arial" font-size="7.9375px" stroke-width=".27195">4x1</tspan></text></g><text x="261.6131" y="90.34362" fill="#000000" font-size="10.583px" stroke-width=".26458" style="line-height:1.25" xml:space="preserve"><tspan x="261.6131" y="90.34362" stroke-width=".26458"></tspan></text><g font-size="7.9375px" stroke-width=".27195" word-spacing="0px"><text transform="scale(1.0279 .9729)" x="192.78465" y="107.89835" fill="#00ff00" style="line-height:3.25" xml:space="preserve"><tspan x="192.78465" y="107.89835" fill="#00ff00" font-family="Arial" font-size="7.9375px" stroke-width=".27195">8x1</tspan></text><text transform="scale(1.0279 .9729)" x="173.95491" y="121.36959" fill="#008080" style="line-height:3.25" xml:space="preserve"><tspan x="173.95491" y="121.36959" fill="#008080" font-family="Arial" font-size="7.9375px" stroke-width=".27195">16x1</tspan></text><text transform="scale(1.0279 .9729)" x="156.45064" y="134.84082" fill="#00ffff" style="line-height:3.25" xml:space="preserve"><tspan x="156.45064" y="134.84082" fill="#00ffff" font-family="Arial" font-size="7.9375px" stroke-width=".27195">32x1</tspan></text><text transform="scale(1.0279 .9729)" x="138.86885" y="148.31204" fill="#000080" style="line-height:3.25" xml:space="preserve"><tspan x="138.86885" y="148.31204" fill="#000080" font-family="Arial" font-size="7.9375px" stroke-width=".27195">64x0</tspan></text><text transform="scale(1.0279 .9729)" x="123.12811" y="161.78329" fill="#800080" style="line-height:3.25" xml:space="preserve"><tspan x="123.12811" y="161.78329" fill="#800080" font-family="Arial" font-size="7.9375px" stroke-width=".27195">128x0</tspan></text><text transform="scale(1.0279 .9729)" x="105.18658" y="175.2545" fill="#ff00ff" style="line-height:3.25" xml:space="preserve"><tspan x="105.18658" y="175.2545" fill="#ff00ff" font-family="Arial" font-size="7.9375px" stroke-width=".27195">256x1</tspan></text><text transform="scale(1.0279 .9729)" x="87.68232" y="188.72575" fill="#2b0000" style="line-height:3.25" xml:space="preserve"><tspan x="87.68232" y="188.72575" fill="#2b0000" font-family="Arial" font-size="7.9375px" stroke-width=".27195">512x1</tspan></text><text transform="scale(1.0279 .9729)" x="69.367409" y="202.19698" fill="#d40000" style="line-height:3.25" xml:space="preserve"><tspan x="69.367409" y="202.19698" fill="#d40000" font-family="Arial" font-size="7.9375px" stroke-width=".27195">1024x1</tspan></text></g></g><path d="m274.84 206.76h23.812" fill="none" stroke="#000" stroke-width=".765"></path><text x="275.10794" y="218.0934" fill="#000000" font-family="Arial" font-size="10.583px" stroke-width=".26458" style="line-height:1.25" xml:space="preserve"><tspan x="275.10794" y="218.0934" font-family="Arial" stroke-width=".26458">1853</tspan></text></g></svg> 